Coordinates
version=1
nRows=17
nColumns=40
inDegrees=yes

Units are S.I. units (second, meters, Newtons, ...)
Angles are in degrees.

endheader
time	pelvis_tilt	pelvis_list	pelvis_rotation	pelvis_tx	pelvis_ty	pelvis_tz	hip_flexion_r	hip_adduction_r	hip_rotation_r	knee_angle_r	knee_angle_r_beta	ankle_angle_r	subtalar_angle_r	mtp_angle_r	hip_flexion_l	hip_adduction_l	hip_rotation_l	knee_angle_l	knee_angle_l_beta	ankle_angle_l	subtalar_angle_l	mtp_angle_l	lumbar_extension	lumbar_bending	lumbar_rotation	arm_flex_r	arm_add_r	arm_rot_r	elbow_flex_r	pro_sup_r	wrist_flex_r	wrist_dev_r	arm_flex_l	arm_add_l	arm_rot_l	elbow_flex_l	pro_sup_l	wrist_flex_l	wrist_dev_l
     14.47750000	     -4.43868442	     -5.34676684	     -3.18534996	      0.80256679	      0.93524190	      0.43778647	     31.89959279	     -2.58996979	     -5.34119347	     42.56802154	     42.56802154	      4.97520893	     -8.09424182	     -1.60209703	     13.29726970	     -5.18891335	     -6.36557692	     19.88067689	     19.88067689	     13.48836287	     -9.13134633	     -1.69309250	    -11.06104702	      6.19589294	      1.76018596	     -5.38382066	    -14.67575887	      0.33484192	     25.03703295	     46.93201051	      0.00000000	      0.00000000	     19.51668924	    -15.23103771	     -0.54388031	     42.96375845	     46.42036182	      0.00000000	      0.00000000
     14.49071429	     -4.62771418	     -5.23010049	     -3.50533208	      0.80140313	      0.93482912	      0.43813373	     31.85478924	     -2.43881779	     -5.64889067	     38.49813602	     38.49813602	      4.46306589	     -6.78510684	     -2.04698190	     12.95678486	     -5.02826067	     -6.37254756	     19.65495387	     19.65495387	     13.61391642	     -9.58906061	     -1.69165147	    -11.01811726	      6.13522932	      1.59999783	     -6.66183307	    -14.70108032	     -1.30457551	     24.00245796	     47.08061505	      0.00000000	      0.00000000	     19.35220523	    -15.57726547	     -1.89287836	     46.14144735	     46.59063800	      0.00000000	      0.00000000
     14.50392857	     -4.85388457	     -5.18542286	     -3.81605238	      0.80023655	      0.93420913	      0.43871943	     31.74539848	     -2.13311210	     -6.03571369	     34.37305033	     34.37305033	      4.08908773	     -5.38580071	     -1.40896585	     12.75007666	     -5.01322448	     -6.50181397	     19.61669248	     19.61669248	     13.86140825	     -9.76727182	     -1.77102194	    -10.83417532	      6.17990745	      1.51086278	     -7.98892866	    -14.90263390	     -1.51400567	     23.44718887	     47.10596790	      0.00000000	      0.00000000	     19.97723376	    -15.92497042	     -2.20292084	     47.03140184	     46.63578601	      0.00000000	      0.00000000
     14.51714286	     -4.91747700	     -5.12325087	     -4.06936803	      0.79912539	      0.93368424	      0.43929780	     31.34170360	     -1.91246766	     -6.79166574	     30.22121359	     30.22121359	      3.61531461	     -3.46614438	     -0.81390041	     12.40127268	     -4.96645332	     -6.59402314	     19.64640307	     19.64640307	     14.14642690	     -9.98732671	     -1.82685399	    -10.92462115	      6.19792522	      1.76427513	     -9.50871943	    -15.17741009	     -1.90587591	     22.91256972	     47.14304314	      0.00000000	      0.00000000	     20.55287752	    -15.97655025	     -2.70182691	     48.80020200	     46.70764773	      0.00000000	      0.00000000
     14.53035714	     -5.09543799	     -4.89104907	     -4.34280394	      0.79801642	      0.93274688	      0.43998491	     31.09313287	     -1.83957626	     -7.65868571	     26.31341350	     26.31341350	      3.02895918	     -1.18876142	     -0.40084752	     12.20428846	     -4.74937453	     -6.71153796	     19.71274376	     19.71274376	     14.50882275	    -10.15859731	     -1.73555146	    -10.94972849	      5.98582524	      1.45295338	    -10.74363594	    -15.17849562	     -4.11537998	     23.41428872	     47.26905078	      0.00000000	      0.00000000	     19.63991500	    -16.39313339	     -4.60624623	     53.50975366	     46.93101447	      0.00000000	      0.00000000
     14.54357143	     -5.35340663	     -4.73547628	     -4.61334198	      0.79694652	      0.93167980	      0.44100075	     30.87580853	     -1.51190311	     -8.19272413	     22.58766279	     22.58766279	      2.33951955	      0.52435396	      0.56627336	     12.10681660	     -4.66487073	     -6.91689076	     19.81312860	     19.81312860	     14.78460252	    -10.32745910	     -1.85342270	    -10.69007126	      5.88561847	      1.50389160	    -11.85981047	    -15.18812569	     -4.32526090	     23.07821061	     47.28457443	      0.00000000	      0.00000000	     20.24303209	    -16.52907864	     -4.88868679	     54.52266458	     46.97282439	      0.00000000	      0.00000000
     14.55678571	     -5.42159643	     -4.61162322	     -4.82620442	      0.79608334	      0.93080351	      0.44202446	     30.43022150	     -1.24637042	     -9.10031660	     19.22511630	     19.22511630	      1.68417701	      2.69393504	      1.68152313	     11.79648055	     -4.59291573	     -7.04301161	     19.92341008	     19.92341008	     15.12459703	    -10.41439799	     -1.96935554	    -10.70774921	      5.81120358	      1.77007641	    -13.11474715	    -15.28422434	     -4.69261752	     22.94207181	     47.30176686	      0.00000000	      0.00000000	     20.69433660	    -16.50771098	     -5.30838158	     56.27295027	     47.03618455	      0.00000000	      0.00000000
     14.57000000	     -5.54202632	     -4.33957965	     -5.05282102	      0.79528345	      0.92973837	      0.44314079	     30.34889091	     -1.20367231	    -10.04868208	     16.89399834	     16.89399834	      1.83387280	      5.10065423	      4.68296476	     11.53533229	     -4.38438728	     -7.31110017	     20.02525941	     20.02525941	     15.58372005	    -10.30597017	     -1.88190042	    -10.75090019	      5.54072866	      1.37470036	    -14.22509635	    -15.16834037	     -6.98735194	     24.48885259	     47.35296217	      0.00000000	      0.00000000	     19.63686731	    -16.81634861	     -7.03739016	     60.86423338	     47.24302969	      0.00000000	      0.00000000
     14.58321429	     -5.66372890	     -4.14318162	     -5.20871734	      0.79470903	      0.92875621	      0.44441826	     30.09599437	     -1.00688773	    -10.63801913	     14.66244600	     14.66244600	      1.15316314	      6.47014673	      5.58328498	     11.23069297	     -4.25069864	     -7.45518705	     20.05075659	     20.05075659	     15.89594039	    -10.31878383	     -2.01268671	    -10.60546065	      5.39524223	      1.60080218	    -15.12059020	    -15.11867880	     -7.16883903	     24.29458696	     47.35763422	      0.00000000	      0.00000000	     20.15077932	    -16.74151382	     -7.24393959	     62.00919949	     47.28061686	      0.00000000	      0.00000000
     14.59642857	     -5.70108326	     -3.94704378	     -5.36101740	      0.79433980	      0.92793097	      0.44582335	     29.83492279	     -0.89466917	    -11.27372751	     13.12660305	     13.12660305	      0.68438238	      7.83525447	      6.53556683	     10.75152326	     -4.11737768	     -7.65624142	     19.95539007	     19.95539007	     16.24184297	    -10.16179770	     -2.14619541	    -10.61803088	      5.21123294	      1.83728099	    -15.99475511	    -15.00322988	     -7.51365638	     24.50929951	     47.35305037	      0.00000000	      0.00000000	     20.35028600	    -16.63722816	     -7.57453446	     63.87659884	     47.33698344	      0.00000000	      0.00000000
     14.60964286	     -5.70286371	     -3.73544196	     -5.46215986	      0.79423012	      0.92717411	      0.44723849	     29.63495040	     -0.89932027	    -11.81518575	     12.33249886	     12.33249886	      0.47503209	      8.80540402	      7.56438262	     10.18687156	     -3.96673105	     -7.92391348	     19.78895353	     19.78895353	     16.58520558	     -9.86241996	     -2.30316365	    -10.61533504	      5.06616177	      1.81026303	    -16.72538180	    -14.84922245	     -8.21381455	     25.42480588	     47.33401703	      0.00000000	      0.00000000	     19.93457616	    -16.66264318	     -8.20207558	     66.77038815	     47.43113621	      0.00000000	      0.00000000
     14.62285714	     -5.80972117	     -3.51241298	     -5.51089469	      0.79427338	      0.92630796	      0.44875632	     29.53161144	     -0.93613549	    -11.99344044	     11.99376114	     11.99376114	      0.21598139	      8.98121134	      8.05439277	      9.69648083	     -3.80488647	     -8.13127704	     19.54795688	     19.54795688	     16.90172612	     -9.55678220	     -2.48082166	    -10.43448027	      4.90464865	      1.45154504	    -17.10850400	    -14.69342445	     -9.01176768	     26.37859105	     47.30021076	      0.00000000	      0.00000000	     19.23761430	    -16.75106401	     -9.05870139	     69.33612022	     47.53959119	      0.00000000	      0.00000000
     14.63607143	     -5.92555914	     -3.37324376	     -5.52918862	      0.79451696	      0.92537155	      0.45031062	     29.38773314	     -0.95244864	    -12.10011084	     12.05272057	     12.05272057	      0.00933239	      8.90786261	      8.11882991	      9.32505290	     -3.72355295	     -8.17364197	     19.54741209	     19.54741209	     17.18391099	     -9.61509425	     -2.57655113	    -10.10605660	      4.95459386	      1.39897594	    -17.14853058	    -14.62893210	     -9.01062843	     26.37601718	     47.29912644	      0.00000000	      0.00000000	     19.34509032	    -16.74307177	     -9.06849738	     69.44112440	     47.54286581	      0.00000000	      0.00000000
     14.64928571	     -5.82770695	     -3.13050404	     -5.48161468	      0.79530936	      0.92486394	      0.45203037	     28.89947964	     -1.11073192	    -11.97683760	     12.29986891	     12.29986891	     -0.46778856	      8.38473080	      6.91303271	      8.25031251	     -3.52110710	     -8.55933545	     18.69733264	     18.69733264	     17.50340111	     -8.64193255	     -2.92087050	    -10.15987587	      4.67920166	      1.42868792	    -17.56081686	    -14.24300115	     -9.44782622	     27.16149025	     47.25152520	      0.00000000	      0.00000000	     18.63416188	    -16.46182385	     -9.68451720	     72.86246561	     47.64670554	      0.00000000	      0.00000000
     14.66250000	     -5.82824122	     -2.97407719	     -5.34942222	      0.79620604	      0.92410662	      0.45367548	     28.54550550	     -1.28484595	    -11.99055204	     12.96792421	     12.96792421	     -0.46797677	      7.89098014	      6.55453562	      7.43934009	     -3.38071730	     -8.59726862	     18.14232045	     18.14232045	     17.82731904	     -8.27102012	     -2.99225048	     -9.90160268	      4.64800618	      1.38892734	    -17.49457006	    -13.98269032	     -9.44378871	     27.26890544	     47.23973387	      0.00000000	      0.00000000	     18.60257284	    -16.23694637	     -9.72328366	     73.34240316	     47.65861791	      0.00000000	      0.00000000
     14.67571429	     -5.83534665	     -2.85871375	     -5.14393447	      0.79733186	      0.92330596	      0.45532893	     28.09519042	     -1.44581528	    -11.93582061	     13.67770073	     13.67770073	     -0.30640748	      7.35475388	      6.14620343	      6.63950047	     -3.28876886	     -8.52636350	     17.62774752	     17.62774752	     18.15305101	     -7.83258048	     -3.08653377	     -9.64006496	      4.71022251	      1.37403741	    -17.31572930	    -13.64336146	     -9.42038903	     27.43219296	     47.22715913	      0.00000000	      0.00000000	     18.42686573	    -15.87471164	     -9.67697943	     73.83688915	     47.66344270	      0.00000000	      0.00000000
     14.68892857	     -5.68189997	     -2.59082245	     -5.06170767	      0.79874891	      0.92264175	      0.45728305	     27.67716097	     -1.72095614	    -11.54977506	     14.82731707	     14.82731707	     -0.06013155	      6.43510636	      5.31903543	      5.44222967	     -3.03330281	     -8.85739184	     16.72377555	     16.72377555	     18.39391296	     -7.11362357	     -3.11850571	     -9.55889121	      4.51417097	      1.48510294	    -17.13020109	    -13.46121661	     -9.44261287	     27.71240716	     47.20987513	      0.00000000	      0.00000000	     18.06674961	    -15.65590634	     -9.75171942	     74.85124660	     47.68531908	      0.00000000	      0.00000000
